<svg xmlns="http://www.w3.org/2000/svg" xmlns:xlink="http://www.w3.org/1999/xlink" width="76.738" height="85.592" viewBox="0 0 76.738 85.592"><defs><clipPath id="a"><rect width="76.738" height="85.592" fill="none"/></clipPath></defs><g clip-path="url(#a)"><path d="M39.957,85.188l7.915-4.308A55.572,55.572,0,0,0,76.738,32.029V11.422a2.958,2.958,0,0,0-2.844-2.979C55.189,7.931,43.584,2.473,39.765.36a2.884,2.884,0,0,0-2.791,0C33.154,2.473,21.549,7.931,2.844,8.443A2.958,2.958,0,0,0,0,11.422V32.029A55.572,55.572,0,0,0,28.865,80.879l7.915,4.308a3.319,3.319,0,0,0,3.177,0" transform="translate(0)" fill="#dadadb"/><path d="M86.75,28.815V46.3A52.826,52.826,0,0,1,59.292,92.8L53.677,95.86a3.135,3.135,0,0,1-3,0L45.058,92.8A52.827,52.827,0,0,1,17.6,46.3V28.815a1.581,1.581,0,0,1,1.479-1.563c15.934-1.083,26.875-5.305,32.411-8.01a1.527,1.527,0,0,1,1.37,0c5.536,2.7,16.479,6.927,32.411,8.01a1.581,1.581,0,0,1,1.479,1.563" transform="translate(-13.806 -14.967)"/><path d="M212.575,28.815V46.3a52.826,52.826,0,0,1-27.458,46.5L179.5,95.86a3.149,3.149,0,0,1-1.5.383V19.08a1.536,1.536,0,0,1,.685.162c5.536,2.7,16.479,6.927,32.411,8.01a1.581,1.581,0,0,1,1.479,1.563" transform="translate(-139.631 -14.967)"/><path d="M132.978,165.967h-26.3a2.838,2.838,0,0,0-2.837,2.837v20.968a2.838,2.838,0,0,0,2.837,2.837h26.3a2.838,2.838,0,0,0,2.837-2.837V168.8a2.838,2.838,0,0,0-2.837-2.837m-10.611,14.65v2.1a2.537,2.537,0,0,1-5.074,0v-2.1a4.313,4.313,0,1,1,5.074,0" transform="translate(-81.461 -130.192)" fill="#fff"/><path d="M153.225,95.361v3.288a2.03,2.03,0,0,1-4.06,0V95.492a5.414,5.414,0,0,0-5.123-5.455,5.334,5.334,0,0,0-5.533,5.324v5.826h-4.06V95.514a9.487,9.487,0,0,1,9.146-9.538,9.39,9.39,0,0,1,9.63,9.385" transform="translate(-105.468 -67.441)" fill="#fff"/></g></svg>