<svg xmlns="http://www.w3.org/2000/svg" xmlns:xlink="http://www.w3.org/1999/xlink" width="64.54" height="78.816" viewBox="0 0 64.54 78.816"><defs><clipPath id="a"><rect width="64.54" height="78.816" fill="#000"/></clipPath></defs><g clip-path="url(#a)"><path d="M48.117,84.428H4.607A4.611,4.611,0,0,1,0,79.822V21.211A4.612,4.612,0,0,1,4.607,16.6h9.214a1.535,1.535,0,0,1,1.536,1.536v3.043a1.538,1.538,0,0,0,1.536,1.536h18.94a1.538,1.538,0,0,0,1.536-1.536V18.14A1.535,1.535,0,0,1,38.9,16.6h9.214a4.612,4.612,0,0,1,4.607,4.607V31.932a1.535,1.535,0,1,1-3.071,0V21.211a1.538,1.538,0,0,0-1.536-1.536H40.439v1.507a4.612,4.612,0,0,1-4.607,4.607H16.893a4.612,4.612,0,0,1-4.607-4.607V19.675H4.607a1.537,1.537,0,0,0-1.536,1.536V79.822a1.537,1.537,0,0,0,1.536,1.535h43.51a1.537,1.537,0,0,0,1.536-1.535V60.214a1.535,1.535,0,1,1,3.071,0V79.822a4.612,4.612,0,0,1-4.607,4.606" transform="translate(0 -5.612)" fill="#000"/><path d="M42.1,20.177H23.165a4.612,4.612,0,0,1-4.607-4.607V11.731a4.612,4.612,0,0,1,4.607-4.607h2.878q-.02-.254-.02-.512a6.612,6.612,0,0,1,13.224,0q0,.257-.021.512H42.1a4.612,4.612,0,0,1,4.607,4.607V15.57A4.612,4.612,0,0,1,42.1,20.177M23.165,10.2a1.538,1.538,0,0,0-1.536,1.536V15.57a1.538,1.538,0,0,0,1.536,1.536H42.1A1.537,1.537,0,0,0,43.64,15.57V11.731A1.537,1.537,0,0,0,42.1,10.2H37.272a1.537,1.537,0,0,1-1.4-2.157,3.5,3.5,0,0,0,.307-1.427,3.54,3.54,0,1,0-7.081,0A3.5,3.5,0,0,0,29.4,8.039,1.536,1.536,0,0,1,28,10.2Z" transform="translate(-6.273 0)" fill="#000"/><path d="M41.307,13.833H32.031a1.536,1.536,0,1,1,0-3.072h9.276a1.536,1.536,0,0,1,0,3.072" transform="translate(-10.308 -3.637)" fill="#000"/><path d="M47.054,41.863H14.294a1.535,1.535,0,1,1,0-3.071H47.054a1.535,1.535,0,1,1,0,3.071" transform="translate(-4.312 -13.112)" fill="#000"/><path d="M35.494,53.617h-21.2a1.535,1.535,0,1,1,0-3.071h21.2a1.535,1.535,0,1,1,0,3.071" transform="translate(-4.312 -17.085)" fill="#000"/><path d="M35.494,65.371h-21.2a1.535,1.535,0,1,1,0-3.071h21.2a1.535,1.535,0,1,1,0,3.071" transform="translate(-4.312 -21.058)" fill="#000"/><path d="M38.822,77.123H14.295a1.535,1.535,0,1,1,0-3.071H38.822a1.535,1.535,0,1,1,0,3.071" transform="translate(-4.313 -25.03)" fill="#000"/><path d="M47.054,88.877H14.294a1.536,1.536,0,0,1,0-3.072H47.054a1.536,1.536,0,0,1,0,3.072" transform="translate(-4.312 -29.003)" fill="#000"/><path d="M47.054,100.631H14.294a1.535,1.535,0,1,1,0-3.071H47.054a1.535,1.535,0,1,1,0,3.071" transform="translate(-4.312 -32.976)" fill="#000"/><path d="M57.249,69.094a1.537,1.537,0,0,1-1.419-2.127L57.7,62.486c-3.514-1.948-5.568-4.9-5.568-8.095,0-5.82,6.6-10.38,15.015-10.38s15.015,4.56,15.015,10.38-6.6,10.38-15.015,10.38c-.417,0-.845-.015-1.323-.046l-7.851,4.188a1.537,1.537,0,0,1-.722.181m9.9-22.011c-6.474,0-11.944,3.347-11.944,7.308,0,2.332,1.9,4.556,5.084,5.951a1.536,1.536,0,0,1,.8,2l-.767,1.84,4.449-2.373a1.516,1.516,0,0,1,.845-.175c.5.04,1.012.069,1.532.069,6.474,0,11.944-3.348,11.944-7.309s-5.469-7.308-11.944-7.308" transform="translate(-17.62 -14.876)" fill="#000"/><path d="M70.828,62.794a1.536,1.536,0,0,1-1.443-1.011L67.849,57.56a1.536,1.536,0,1,1,2.886-1.05l.763,2.1,5.22-4.64a1.536,1.536,0,1,1,2.04,2.3l-6.911,6.143a1.535,1.535,0,0,1-1.02.388" transform="translate(-22.902 -18.11)" fill="#000"/></g></svg>