<svg xmlns="http://www.w3.org/2000/svg" xmlns:xlink="http://www.w3.org/1999/xlink" width="57.016" height="73.937" viewBox="0 0 57.016 73.937"><defs><clipPath id="a"><rect width="57.016" height="73.937" fill="none"/></clipPath></defs><g clip-path="url(#a)"><path d="M301.83,1284.469h-6.8a.811.811,0,0,1-.811-.812v-6.8a.811.811,0,0,1,.811-.811h6.8a.811.811,0,0,1,.811.811v6.8a.811.811,0,0,1-.811.812m-5.985-1.623h5.173v-5.173h-5.173Z" transform="translate(-285.724 -1239.195)"/><path d="M718.08,1323.055H690.941a.811.811,0,1,1,0-1.623H718.08a.811.811,0,1,1,0,1.623" transform="translate(-670.198 -1283.267)"/><path d="M713.944,1467.6h-23a.812.812,0,0,1,0-1.623h23a.812.812,0,1,1,0,1.623" transform="translate(-670.198 -1423.637)"/><path d="M301.83,1670.691h-6.8a.811.811,0,0,1-.811-.811v-6.8a.811.811,0,0,1,.811-.812h6.8a.811.811,0,0,1,.811.812v6.8a.811.811,0,0,1-.811.811m-5.985-1.623h5.173V1663.9h-5.173Z" transform="translate(-285.724 -1614.263)"/><path d="M718.08,1709.277H690.941a.812.812,0,0,1,0-1.623H718.08a.812.812,0,0,1,0,1.623" transform="translate(-670.198 -1658.334)"/><path d="M713.944,1853.823h-23a.811.811,0,1,1,0-1.623h23a.811.811,0,1,1,0,1.623" transform="translate(-670.198 -1798.706)"/><path d="M301.83,2056.913h-6.8a.811.811,0,0,1-.811-.812v-6.8a.811.811,0,0,1,.811-.812h6.8a.811.811,0,0,1,.811.812v6.8a.811.811,0,0,1-.811.812m-5.985-1.623h5.173v-5.173h-5.173Z" transform="translate(-285.724 -1989.331)"/><path d="M718.08,2095.5H690.941a.811.811,0,0,1,0-1.623H718.08a.811.811,0,1,1,0,1.623" transform="translate(-670.198 -2033.402)"/><path d="M713.944,2240.045h-23a.812.812,0,0,1,0-1.624h23a.812.812,0,0,1,0,1.624" transform="translate(-670.198 -2173.772)"/><path d="M49.7,337.785H7.316A7.324,7.324,0,0,1,0,330.469V279.012A7.325,7.325,0,0,1,7.316,271.7h7.178a.812.812,0,0,1,0,1.623H7.316a5.7,5.7,0,0,0-5.693,5.694v51.457a5.7,5.7,0,0,0,5.693,5.693H49.7a5.7,5.7,0,0,0,5.693-5.693V279.012a5.7,5.7,0,0,0-5.693-5.694H42.522a.812.812,0,0,1,0-1.623H49.7a7.325,7.325,0,0,1,7.316,7.317v51.457a7.325,7.325,0,0,1-7.316,7.316" transform="translate(0 -263.848)"/><path d="M409.166,34.36A17.179,17.179,0,0,1,403.874.835a17.191,17.191,0,0,1,22.231,19.29,17.181,17.181,0,0,1-11.622,13.4,17.232,17.232,0,0,1-5.317.839m.025-32.739a15.55,15.55,0,0,0-13.1,7.131A15.566,15.566,0,1,0,417.6,4.094a15.7,15.7,0,0,0-2.937-1.48,15.525,15.525,0,0,0-5.475-.993m9.9,28.588h0Z" transform="translate(-380.665 0)"/><path d="M505.444,127.967a14.086,14.086,0,0,1-4.981-.907,14.32,14.32,0,1,1,19.021-16.436,14.189,14.189,0,0,1-1.958,10.775,14.393,14.393,0,0,1-12.083,6.567m.1-27a12.793,12.793,0,0,0-10.728,5.814,12.7,12.7,0,0,0,3.815,17.547,12.653,12.653,0,0,0,17.532-3.806,12.69,12.69,0,0,0-3.794-17.542,12.842,12.842,0,0,0-2.395-1.207,12.524,12.524,0,0,0-4.43-.806" transform="translate(-476.984 -96.476)"/><path d="M887.137,497.86a2.926,2.926,0,0,1-1.6-.474,2.969,2.969,0,0,1-.888-4.1,2.983,2.983,0,0,1,3.546-1.171,2.97,2.97,0,0,1,1.448,4.386,2.987,2.987,0,0,1-2.506,1.361m.017-4.314a1.36,1.36,0,0,0-1.14.617,1.347,1.347,0,0,0,.4,1.86,1.337,1.337,0,0,0,1.861-.4,1.344,1.344,0,0,0-1.126-2.075" transform="translate(-858.641 -477.716)"/><path d="M699.452,303.84a.809.809,0,0,1-.578-.243l-6.179-6.277a.811.811,0,0,1,1.157-1.138l6.179,6.277a.812.812,0,0,1-.578,1.381" transform="translate(-672.462 -287.393)"/><path d="M1017.044,376.473a.811.811,0,0,1-.524-1.432l5.069-4.269a.812.812,0,1,1,1.046,1.241l-5.07,4.269a.8.8,0,0,1-.521.191" transform="translate(-986.88 -359.878)"/></g></svg>